<?xml version="1.0" standalone="no"?>
<!DOCTYPE svg PUBLIC "-//W3C//DTD SVG 20010904//EN"
 "http://www.w3.org/TR/2001/REC-SVG-20010904/DTD/svg10.dtd">
<svg version="1.0" xmlns="http://www.w3.org/2000/svg"
 width="1024.000000pt" height="523.000000pt" viewBox="0 0 1024.000000 523.000000"
 preserveAspectRatio="xMidYMid meet">

<g transform="translate(0.000000,523.000000) scale(0.100000,-0.100000)"
fill="#ffffff" stroke="none">
<path d="M4542 4268 c-28 -28 0 -223 44 -310 27 -53 82 -115 131 -150 54 -37
177 -78 233 -78 30 0 43 -5 54 -22 27 -43 37 -103 34 -201 l-3 -97 -80 60
c-162 121 -410 226 -638 270 -117 22 -320 38 -367 29 -42 -9 -88 -54 -100
-101 -7 -24 -10 -233 -8 -575 l3 -538 23 -33 c31 -43 64 -58 142 -67 337 -36
612 -169 850 -409 124 -126 175 -156 264 -156 90 0 129 24 260 154 178 179
309 263 541 344 78 28 211 56 318 67 52 6 76 14 99 33 59 50 58 42 58 627 0
577 0 574 -53 624 -35 32 -72 37 -201 29 -326 -23 -623 -126 -855 -298 -45
-33 -83 -60 -86 -60 -3 0 -5 42 -5 93 0 148 32 227 93 227 41 0 143 28 191 52
103 52 167 131 206 257 20 63 30 207 16 230 -11 18 -163 13 -244 -8 -88 -23
-146 -56 -199 -114 -71 -77 -113 -184 -113 -290 0 -48 -12 -71 -31 -65 -9 3
-18 36 -25 97 -25 202 -128 323 -316 372 -81 22 -218 25 -236 7z m260 -164
c53 -31 94 -74 119 -128 16 -34 29 -71 29 -82 0 -20 -4 -21 -32 -14 -101 23
-183 93 -218 186 -11 31 -18 59 -15 64 5 8 91 -11 117 -26z m754 -7 c-4 -19
-24 -61 -45 -94 -30 -46 -50 -65 -97 -90 -32 -17 -72 -33 -89 -35 -27 -3 -30
0 -27 22 10 72 64 151 132 193 32 20 121 48 129 41 2 -2 1 -18 -3 -37z m-1346
-508 c41 -6 111 -20 155 -31 256 -64 443 -167 620 -340 90 -89 102 -98 137
-98 34 0 46 8 131 93 191 190 413 304 705 362 96 19 252 36 263 29 5 -3 9
-225 9 -495 l0 -489 -22 0 c-47 0 -244 -42 -332 -71 -124 -41 -314 -136 -414
-209 -46 -33 -85 -60 -88 -60 -2 0 -4 105 -4 233 l0 232 30 63 c77 162 300
315 546 372 49 12 99 28 110 35 46 30 31 128 -22 141 -52 13 -221 -30 -363
-92 -97 -43 -245 -150 -316 -227 -75 -82 -128 -181 -144 -271 -6 -34 -11 -188
-11 -356 0 -286 -1 -298 -21 -324 -16 -20 -29 -26 -59 -26 -68 0 -70 9 -70
322 0 371 -14 452 -98 574 -122 180 -359 329 -618 389 -126 29 -174 11 -174
-65 0 -43 31 -76 79 -86 275 -55 508 -201 601 -374 l35 -65 3 -244 c3 -204 2
-243 -10 -235 -103 80 -150 111 -229 154 -170 92 -327 146 -523 179 l-101 17
-3 479 c-1 264 0 486 3 493 5 13 42 11 195 -9z"/>
<path d="M4183 2978 c-44 -21 -54 -96 -18 -132 8 -8 41 -22 73 -31 100 -27
191 -66 251 -106 105 -70 185 -41 171 61 -7 53 -168 146 -337 195 -94 27 -108
29 -140 13z"/>
<path d="M5920 2964 c-110 -32 -258 -104 -304 -147 -44 -41 -48 -82 -13 -123
34 -39 71 -36 148 12 73 46 166 86 254 110 87 23 113 63 84 127 -11 24 -48 48
-72 46 -7 0 -50 -11 -97 -25z"/>
<path d="M6629 2466 c-101 -27 -202 -122 -336 -319 -31 -45 -66 -95 -80 -112
l-24 -30 -22 26 c-70 84 -201 79 -398 -14 -179 -85 -357 -235 -438 -371 -19
-31 -50 -103 -70 -159 -35 -102 -35 -103 -39 -303 l-4 -201 27 -21 c36 -29 80
-28 109 1 21 22 23 33 29 197 7 200 27 285 94 398 49 83 171 198 269 256 83
49 198 100 250 110 58 13 75 -32 36 -92 -8 -12 -66 -65 -128 -118 -105 -88
-114 -99 -114 -131 0 -44 40 -83 84 -83 24 0 52 17 115 66 177 140 297 269
426 459 100 146 150 208 199 244 25 17 49 31 54 31 28 0 -42 -219 -119 -374
-149 -301 -391 -549 -677 -695 -64 -32 -82 -55 -82 -100 0 -31 6 -44 26 -60
38 -30 67 -26 143 15 412 226 687 552 831 982 54 160 63 267 28 326 -39 67
-108 93 -189 72z"/>
<path d="M3473 2450 c-90 -55 -94 -181 -14 -427 112 -344 338 -650 638 -864
94 -67 122 -82 154 -83 51 -1 83 30 83 79 0 42 -12 55 -109 120 -285 191 -498
476 -609 818 -39 117 -56 212 -38 206 31 -11 131 -125 192 -219 124 -189 173
-252 285 -366 147 -149 230 -214 273 -214 45 0 82 38 82 83 0 38 -10 52 -65
92 -61 46 -183 164 -190 186 -12 36 4 59 38 59 44 -1 160 -48 254 -103 155
-91 242 -178 303 -302 51 -103 63 -165 67 -352 5 -164 6 -173 29 -198 45 -49
123 -26 140 41 11 44 -4 334 -21 403 -65 265 -222 449 -502 590 -104 52 -220
91 -270 91 -45 0 -110 -28 -137 -59 -11 -11 -23 -21 -27 -21 -4 0 -51 65 -103
143 -151 226 -257 317 -370 317 -33 0 -62 -7 -83 -20z"/>
</g>
</svg>
